<svg width="300" height="300" viewBox="0 0 300 300" fill="none" xmlns="http://www.w3.org/2000/svg">
<g clip-path="url(#clip0_8:2)">
<path d="M106.497 281C118.032 280.997 129.094 276.395 137.251 268.207C145.407 260.019 149.991 248.915 149.994 237.335V193.671H106.497C94.9609 193.671 83.8973 198.271 75.74 206.46C67.5827 214.648 63 225.755 63 237.335C63 248.916 67.5827 260.022 75.74 268.211C83.8973 276.4 94.9609 281 106.497 281V281Z" fill="#0ACF83"/>
<path d="M63 150.006C63.0031 138.425 67.5865 127.32 75.7427 119.13C83.899 110.94 94.9608 106.336 106.497 106.329H149.994V193.671H106.497C94.9619 193.667 83.9001 189.066 75.7435 180.878C67.5869 172.69 63.0031 161.586 63 150.006V150.006Z" fill="#A259FF"/>
<path d="M63 62.6647C63.0031 51.0851 67.5869 39.9806 75.7435 31.7926C83.9001 23.6045 94.9619 19.0032 106.497 19L149.994 19V106.329H106.497C94.9619 106.326 83.9001 101.725 75.7435 93.5368C67.5869 85.3487 63.0031 74.2443 63 62.6647V62.6647Z" fill="#F24E1E"/>
<path d="M149.994 19H193.503C205.039 19 216.103 23.6004 224.26 31.7891C232.417 39.9778 237 51.0841 237 62.6647C237 74.2453 232.417 85.3516 224.26 93.5403C216.103 101.729 205.039 106.329 193.503 106.329H149.994V19Z" fill="#FF7262"/>
<path d="M237 150.006C237 158.645 234.448 167.09 229.667 174.273C224.885 181.455 218.089 187.054 210.138 190.359C202.188 193.664 193.439 194.529 184.999 192.842C176.558 191.156 168.806 186.995 162.721 180.886C156.637 174.776 152.494 166.993 150.817 158.52C149.139 150.046 150.003 141.264 153.298 133.283C156.592 125.303 162.171 118.482 169.327 113.684C176.484 108.887 184.897 106.327 193.503 106.329C205.04 106.333 216.104 110.936 224.261 119.126C232.418 127.317 237 138.424 237 150.006V150.006Z" fill="#1ABCFE"/>
</g>
<defs>
<clipPath id="clip0_8:2">
<rect width="174" height="262" fill="white" transform="translate(63 19)"/>
</clipPath>
</defs>
</svg>
