<svg width="100" height="95" viewBox="0 0 100 95" fill="none" xmlns="http://www.w3.org/2000/svg">
<path d="M54.1667 32.5H77.0833L54.1667 9.58333V32.5ZM25 3.33333H58.3333L83.3333 28.3333V78.3333C83.3333 80.5435 82.4554 82.6631 80.8925 84.2259C79.3297 85.7887 77.2101 86.6667 75 86.6667H25C22.7899 86.6667 20.6703 85.7887 19.1074 84.2259C17.5446 82.6631 16.6667 80.5435 16.6667 78.3333V11.6667C16.6667 7.04167 20.375 3.33333 25 3.33333ZM25.5 59.5833L41.0833 75.1667L47 69.2917L37.2917 59.5833L47 49.875L41.0833 44L25.5 59.5833ZM72 59.5833L56.4167 44L50.5 49.875L60.2083 59.5833L50.5 69.2917L56.4167 75.1667L72 59.5833Z" fill="#57C7FF"/>
<path d="M23 43H78V78H23V43Z" fill="#57C7FF"/>
</svg>
