<svg width="261" height="209" viewBox="0 0 261 209" fill="none" xmlns="http://www.w3.org/2000/svg">
<g clip-path="url(#clip0_9_4)">
<path d="M234.88 20.89H130.66L104.21 0H26.05C22.636 0.00260159 19.256 0.679129 16.1039 1.99079C12.9518 3.30245 10.0897 5.22343 7.68164 7.64358C5.27357 10.0637 3.36692 12.9354 2.07105 16.094C0.775179 19.2526 0.11557 22.6359 0.130048 26.05L4.8174e-05 182.37C-0.00654046 185.793 0.662766 189.183 1.96957 192.347C3.27637 195.51 5.19495 198.385 7.61522 200.805C10.0355 203.225 12.9098 205.144 16.0734 206.45C19.2369 207.757 22.6273 208.427 26.05 208.42H234.48C237.903 208.427 241.293 207.757 244.457 206.45C247.62 205.144 250.495 203.225 252.915 200.805C255.335 198.385 257.254 195.51 258.561 192.347C259.867 189.183 260.537 185.793 260.53 182.37L260.93 46.94C260.937 43.5172 260.267 40.1268 258.961 36.9633C257.654 33.7998 255.735 30.9255 253.315 28.5052C250.895 26.0849 248.02 24.1663 244.857 22.8595C241.693 21.5527 238.303 20.8834 234.88 20.89V20.89ZM234.48 182.37H26.05L26.45 46.94H234.88L234.48 182.37Z" fill="#57C7FF"/>
<path d="M112 136L151.88 176L167.022 160.92L142.177 136L167.022 111.08L151.88 96L112 136ZM231 136L191.12 96L175.978 111.08L200.823 136L175.978 160.92L191.12 176L231 136Z" fill="#57C7FF"/>
</g>
<defs>
<clipPath id="clip0_9_4">
<rect width="260.93" height="208.43" fill="white"/>
</clipPath>
</defs>
</svg>
