<svg width="261" height="209" viewBox="0 0 261 209" fill="none" xmlns="http://www.w3.org/2000/svg">
<g clip-path="url(#clip0_9_2)">
<path fill-rule="evenodd" clip-rule="evenodd" d="M104.29 0H26.07C22.6548 0.00786888 19.2746 0.688506 16.1225 2.00303C12.9704 3.31755 10.1081 5.24021 7.69923 7.66117C5.29035 10.0821 3.38203 12.9539 2.08328 16.1126C0.784527 19.2712 0.120796 22.6548 0.13 26.07L1.22138e-08 182.51C-0.0013141 185.934 0.672109 189.325 1.98178 192.488C3.29146 195.652 5.21171 198.526 7.6328 200.947C10.0539 203.368 12.9283 205.289 16.0919 206.598C19.2554 207.908 22.6461 208.581 26.07 208.58H234.66C238.084 208.581 241.475 207.908 244.638 206.598C247.802 205.289 250.676 203.368 253.097 200.947C255.518 198.526 257.439 195.652 258.748 192.488C260.058 189.325 260.731 185.934 260.73 182.51V47C260.73 40.0858 257.983 33.4548 253.094 28.5657C248.205 23.6767 241.574 20.93 234.66 20.93H130.37C131.1 20.91 104.57 0 104.29 0ZM112 136L151.88 176L167.021 160.92L142.177 136L167.021 111.08L151.88 96L112 136ZM191.12 96L231 136L191.12 176L175.978 160.92L200.823 136L175.978 111.08L191.12 96Z" fill="#57C7FF"/>
</g>
<defs>
<clipPath id="clip0_9_2">
<rect width="260.73" height="208.59" fill="white"/>
</clipPath>
</defs>
</svg>
